<svg xmlns="http://www.w3.org/2000/svg" viewBox="0 0 34 34"><title>watermark</title><g opacity="0.7"><g opacity="0.8"><path d="M32,9.17371a2.74025,2.74025,0,0,0-.62848-1.8509h.43555L31.798,6.3139c-.01428-1.60211-1.14013-3.31408-4.257-3.31408a5.01382,5.01382,0,0,0-2.94324.8363l-.56525-.32471V3.33435h-.11206A2.09532,2.09532,0,0,0,24.044,2.621,2.13687,2.13687,0,0,0,21.83911.50916a2.22938,2.22938,0,0,0-1.70245.76458L19.12128.69055a5.32037,5.32037,0,0,0-5.24256,0L3.52161,6.63928A4.98863,4.98863,0,0,0,1,10.92712V23.07281a5.05372,5.05372,0,0,0,2.50623,4.27863l10.37249,5.958a5.32,5.32,0,0,0,5.24256,0l10.35717-5.94892A4.98847,4.98847,0,0,0,32,23.07281V10.87756a4.70039,4.70039,0,0,0-.09857-.9057A3.36185,3.36185,0,0,0,32,9.17371Z" fill="#fff"/><path d="M27.541,3.99985c1.9986,0,3.2436.8111,3.2571,2.323H28.6176c-.0201-.5241-.4374-.7169-1.097-.7169-.5853,0-.9621.2552-.9621.6315,0,.2889.269.4973.8209.6114l1.5344.3092c1.4604.309,2.0862.907,2.0862,2.0157,0,1.5186-1.3795,2.4928-3.4256,2.4928-2.1399,0-3.3783-.8348-3.4791-2.3331h2.315c.0673.544.5046.7274,1.2046.7274.6326,0,1.0228-.2285,1.0228-.6184,0-.2954-.222-.4636-.7939-.5845l-1.3864-.2891c-1.4335-.3022-2.1873-1.0548-2.1873-2.177C24.2701,4.92725,25.5219,3.99985,27.541,3.99985Zm-4.5085,7.7356c0,1.4389-1.0113,2.2332-2.8118,2.2332-.2224,0-.4855-.0128-.6136-.0259V12.302a1.51379,1.51379,0,0,0,.1955.0131c.5936,0,.8402-.1962.8402-.6715V4.33435h2.3897Zm-2.4052-9.1144a1.21253,1.21253,0,0,1,2.4167,0,1.212,1.212,0,0,1-2.4167,0Z"/><path d="M28.9286,13.54625v9.5265a1.9948,1.9948,0,0,1-1.0074,1.7016l-10.3571,5.9489a2.18444,2.18444,0,0,1-2.1282,0l-10.3252-5.93a2.05244,2.05244,0,0,1-1.0393-1.7205V10.92715a1.99494,1.99494,0,0,1,1.0072-1.7017l10.3573-5.949a2.18621,2.18621,0,0,1,2.1284,0l1.0071.5786V1.53235a4.30825,4.30825,0,0,0-4.1946.0255L4.0197,7.50635A3.96282,3.96282,0,0,0,2,10.92715v12.1456a4.02467,4.02467,0,0,0,2.0197,3.4207l10.3571,5.9487a4.31976,4.31976,0,0,0,4.2464,0l10.3572-5.9487A3.96293,3.96293,0,0,0,31,23.07275V12.78565A5.94923,5.94923,0,0,1,28.9286,13.54625ZM16.5,7.49975a2.12645,2.12645,0,1,1-2.2009,2.1251A2.16405,2.16405,0,0,1,16.5,7.49975Zm6.2143,18.3795a.497.497,0,0,1-.253.4296l-5.6446,3.2457a.53288.53288,0,0,1-.5282.0007l-5.7482-3.277a.49722.49722,0,0,1-.2546-.4306v-2.882a.49755.49755,0,0,1,.2618-.4346.53417.53417,0,0,1,.5208.0052l3.3602,1.7972v-6.8607l-1.8182-1.1189a.49622.49622,0,0,1-.2532-.4296v-2.8916a.49711.49711,0,0,1,.2625-.435.53342.53342,0,0,1,.5211.0058l5.1786,2.7662a.49626.49626,0,0,1,.2521.429v8.5348l3.3603-1.7972a.534.534,0,0,1,.5207-.0052.49765.49765,0,0,1,.2619.4346Z" opacity="0.8"/></g></g></svg>